<svg xmlns="http://www.w3.org/2000/svg" version="1.1" xmlns:xlink="http://www.w3.org/1999/xlink" xmlns:svgjs="http://svgjs.dev/svgjs" width="2000" height="5200" viewBox="0 0 2000 5200"><g transform="matrix(1,0,0,1,4.626694484312225,2.1052631578945693)"><svg viewBox="0 0 95 247" data-background-color="#dedede" preserveAspectRatio="xMidYMid meet" height="5200" width="2000" xmlns="http://www.w3.org/2000/svg" xmlns:xlink="http://www.w3.org/1999/xlink"><g id="tight-bounds" transform="matrix(1,0,0,1,-0.21976798800483266,-0.09999999999999432)"><svg viewBox="0 0 95.43953597600962 247.2" height="247.2" width="95.43953597600962"><g><svg viewBox="0 0 190.72181843791304 493.99269428241115" height="247.2" width="95.43953597600962"><g transform="matrix(1,0,0,1,0,131.32687697133468)"><svg viewBox="0 0 190.72181843791304 362.66581731107647" height="362.66581731107647" width="190.72181843791304"><g id="textblocktransform"><svg viewBox="0 0 190.72181843791304 362.66581731107647" height="362.66581731107647" width="190.72181843791304" id="textblock"><g><rect width="190.72181843791304" height="22.154981908537728" x="0" y="271.7711046775968" fill="#374151" opacity="1" stroke-width="0" stroke="transparent" fill-opacity="1" class="rect-qz-0" data-fill-palette-color="primary" rx="1%" id="qz-0" data-palette-color="#374151"></rect></g><g transform="matrix(1,0,0,1,0.47443238417390887,0)"><svg viewBox="0 0 189.77295366956523 245.672304" height="245.672304" width="189.77295366956523"><g transform="matrix(1,0,0,1,0,0)"><svg width="189.77295366956523" viewBox="0.75 -34.5 26.65 34.5" height="245.672304" data-palette-color="#374151"><path d="M13.45-29.5L13.45-29.5 8.8-29.5Q8.45-26.75 7.55-25.2L7.55-25.2 2.8-25.5Q1.7-27.4 1.7-31.4L1.7-31.4Q1.7-33.1 2.05-34.5L2.05-34.5 26.4-34.5 26.9-30.55 12.4-8.8Q11.05-6.7 9.6-5.5L9.6-5.5 9.05-5.1 9.3-4.55Q11.6-5 14.2-5L14.2-5 20.3-5Q20.65-7.75 21.55-9.3L21.55-9.3 26.3-9Q27.4-7.1 27.4-3.1L27.4-3.1Q27.4-1.4 27.05 0L27.05 0 1.25 0 0.75-3.95 15.25-25.7Q16.6-27.8 18.1-29L18.1-29 18.6-29.4 18.35-29.95Q16.05-29.5 13.45-29.5Z" opacity="1" transform="matrix(1,0,0,1,0,0)" fill="#374151" class="wordmark-text-0" data-fill-palette-color="primary" id="text-0"></path></svg></g></svg></g><g transform="matrix(1,0,0,1,0,320.0248872637313)"><svg viewBox="0 0 189.77295366956523 42.640930047345115" height="42.640930047345115" width="189.77295366956523"><g transform="matrix(1,0,0,1,0,0)"><svg width="189.77295366956523" viewBox="1.4 -35.35 159.53 35.85" height="42.640930047345115" data-palette-color="#374151"><path d="M11.2 0.5L11.2 0.5Q8.45 0.5 6.23-0.88 4-2.25 2.7-4.55 1.4-6.85 1.4-9.7L1.4-9.7 1.45-25.3Q1.45-28.05 2.73-30.33 4-32.6 6.23-33.98 8.45-35.35 11.2-35.35L11.2-35.35Q13.95-35.35 16.15-34 18.35-32.65 19.65-30.38 20.95-28.1 20.95-25.3L20.95-25.3 20.95-23Q20.95-22.8 20.75-22.8L20.75-22.8 15.15-22.8Q14.95-22.8 14.95-23L14.95-23 14.95-25.3Q14.95-26.95 13.88-28.15 12.8-29.35 11.2-29.35L11.2-29.35Q9.4-29.35 8.45-28.13 7.5-26.9 7.5-25.3L7.5-25.3 7.5-9.7Q7.5-7.85 8.58-6.7 9.65-5.55 11.2-5.55L11.2-5.55Q12.8-5.55 13.88-6.83 14.95-8.1 14.95-9.7L14.95-9.7 14.95-12Q14.95-12.2 15.15-12.2L15.15-12.2 20.8-12.2Q21-12.2 21-12L21-12 21-9.7Q21-6.85 19.68-4.55 18.35-2.25 16.15-0.88 13.95 0.5 11.2 0.5ZM41 0L24.85 0Q24.65 0 24.65-0.25L24.65-0.25 24.7-34.6Q24.7-34.8 24.9-34.8L24.9-34.8 40.95-34.8Q41.15-34.8 41.15-34.55L41.15-34.55 41.15-28.95Q41.15-28.75 40.95-28.75L40.95-28.75 30.7-28.75 30.7-20.95 40.95-20.95Q41.15-20.95 41.15-20.75L41.15-20.75 41.2-15.1Q41.2-14.9 41-14.9L41-14.9 30.7-14.9 30.7-6.15 41-6.15Q41.2-6.15 41.2-5.9L41.2-5.9 41.2-0.2Q41.2 0 41 0L41 0ZM51.1 0L46.1 0Q45.7 0 45.7-0.35L45.7-0.35 45.65-34.4Q45.65-34.8 46.05-34.8L46.05-34.8 50.55-34.8 59-15.1 58.75-34.4Q58.75-34.8 59.2-34.8L59.2-34.8 64.15-34.8Q64.45-34.8 64.45-34.4L64.45-34.4 64.5-0.3Q64.5 0 64.25 0L64.25 0 59.84 0 51.2-18.4 51.55-0.4Q51.55 0 51.1 0L51.1 0ZM79.49 0L73.84 0Q73.64 0 73.64-0.25L73.64-0.25 73.64-28.75 67.14-28.75Q66.89-28.75 66.89-29L66.89-29 66.94-34.6Q66.94-34.8 67.14-34.8L67.14-34.8 86.14-34.8Q86.39-34.8 86.39-34.6L86.39-34.6 86.39-29Q86.39-28.75 86.19-28.75L86.19-28.75 79.64-28.75 79.69-0.25Q79.69 0 79.49 0L79.49 0ZM85.34-0.25L85.34-0.25 91.54-34.6Q91.59-34.8 91.79-34.8L91.79-34.8 99.04-34.8Q99.24-34.8 99.29-34.6L99.29-34.6 105.24-0.25Q105.29 0 105.04 0L105.04 0 99.49 0Q99.29 0 99.24-0.25L99.24-0.25 98.69-3.9 91.89-3.9 91.34-0.25Q91.29 0 91.09 0L91.09 0 85.54 0Q85.34 0 85.34-0.25ZM95.14-23.3L92.89-9.25 97.69-9.25 95.64-23.3 95.34-25.15 95.14-23.3ZM116.94 0.5L116.94 0.5Q114.29 0.5 112.04-0.88 109.79-2.25 108.46-4.55 107.14-6.85 107.14-9.6L107.14-9.6 107.24-34.6Q107.24-34.8 107.44-34.8L107.44-34.8 113.04-34.8Q113.24-34.8 113.24-34.6L113.24-34.6 113.24-9.6Q113.24-7.9 114.31-6.73 115.39-5.55 116.94-5.55L116.94-5.55Q118.54-5.55 119.61-6.73 120.69-7.9 120.69-9.6L120.69-9.6 120.69-34.6Q120.69-34.8 120.89-34.8L120.89-34.8 126.49-34.8Q126.69-34.8 126.69-34.6L126.69-34.6 126.79-9.6Q126.79-6.8 125.46-4.5 124.14-2.2 121.91-0.85 119.69 0.5 116.94 0.5ZM136.59 0L130.94 0Q130.74 0 130.74-0.25L130.74-0.25 130.84-34.6Q130.84-34.8 131.04-34.8L131.04-34.8 141.14-34.8Q143.84-34.8 146.11-33.48 148.39-32.15 149.74-29.93 151.09-27.7 151.09-24.9L151.09-24.9Q151.09-23.05 150.54-21.58 149.99-20.1 149.24-19.07 148.49-18.05 147.89-17.55L147.89-17.55Q150.59-14.55 150.59-10.5L150.59-10.5 150.64-0.25Q150.64 0 150.39 0L150.39 0 144.74 0Q144.54 0 144.54-0.15L144.54-0.15 144.54-10.5Q144.54-12.3 143.26-13.63 141.99-14.95 140.14-14.95L140.14-14.95 136.84-14.95 136.79-0.25Q136.79 0 136.59 0L136.59 0ZM136.84-28.8L136.84-20.95 141.14-20.95Q142.69-20.95 143.89-22.1 145.09-23.25 145.09-24.9L145.09-24.9Q145.09-26.5 143.91-27.65 142.74-28.8 141.14-28.8L141.14-28.8 136.84-28.8ZM160.73 0L155.08 0Q154.83 0 154.83-0.25L154.83-0.25 154.88-34.6Q154.88-34.8 155.08-34.8L155.08-34.8 160.68-34.8Q160.88-34.8 160.88-34.6L160.88-34.6 160.93-0.25Q160.93 0 160.73 0L160.73 0Z" opacity="1" transform="matrix(1,0,0,1,0,0)" fill="#374151" class="slogan-text-1" data-fill-palette-color="secondary" id="text-1"></path></svg></g></svg></g></svg></g></svg></g><g transform="matrix(1,0,0,1,55.87577114775538,0)"><svg viewBox="0 0 78.97027614240228 73.3295421322307" height="73.3295421322307" width="78.97027614240228"><g><svg xmlns="http://www.w3.org/2000/svg" xmlns:xlink="http://www.w3.org/1999/xlink" version="1.1" x="0" y="0" viewBox="1 1.0000000000000009 14 13" style="enable-background:new 0 0 16 16;" xml:space="preserve" height="73.3295421322307" width="78.97027614240228" class="icon-icon-0" data-fill-palette-color="accent" id="icon-0"><path d="M14 11c0 0.552-0.448 1-1 1h-3v-1.293c2.329-0.686 4-2.531 4-4.707 0-2.761-2.686-5-6-5S2 3.239 2 6c0 2.176 1.671 4.021 4 4.707V12H3c-0.552 0-1-0.448-1-1H1v3h6V9.859C5.278 9.412 4 7.862 4 6c0-2.209 1.791-4 4-4s4 1.791 4 4c0 1.862-1.278 3.412-3 3.859V14h6v-3H14z" fill="#082f49" data-fill-palette-color="accent"></path></svg></g></svg></g><g></g></svg></g><defs></defs></svg><rect width="95.43953597600962" height="247.2" fill="none" stroke="none" visibility="hidden"></rect></g></svg></g></svg>